HIERARCHY
ROOT Hips
{
  OFFSET 57.8838 95.319 338.509
  CHANNELS 6 Xposition Yposition Zposition Zrotation Xrotation Yrotation
  JOINT LeftUpLeg
  {
    OFFSET 8.64259 1.95398 -2.38835
    CHANNELS 3 Zrotation Xrotation Yrotation
    JOINT LeftLeg
    {
      OFFSET 43.7702 0 0
      CHANNELS 3 Zrotation Xrotation Yrotation
      JOINT LeftFoot
      {
        OFFSET 40.6238 0 0
        CHANNELS 3 Zrotation Xrotation Yrotation
        JOINT LeftToeBase
        {
          OFFSET 12.7242 0 0
          CHANNELS 3 Zrotation Xrotation Yrotation
          End Site
          {
            OFFSET 0 0 0
          }
        }
      }
    }
  }
  JOINT RightUpLeg
  {
    OFFSET -8.2249 1.95398 -2.59336
    CHANNELS 3 Zrotation Xrotation Yrotation
    JOINT RightLeg
    {
      OFFSET 43.5653 0 0
      CHANNELS 3 Zrotation Xrotation Yrotation
      JOINT RightFoot
      {
        OFFSET 40.6238 0 0
        CHANNELS 3 Zrotation Xrotation Yrotation
        JOINT RightToeBase
        {
          OFFSET 12.7242 0 0
          CHANNELS 3 Zrotation Xrotation Yrotation
          End Site
          {
            OFFSET 0 0 0
          }
        }
      }
    }
  }
  JOINT Spine
  {
    OFFSET 0.165834 0.87714 6.61349
    CHANNELS 3 Zrotation Xrotation Yrotation
    JOINT Spine1
    {
      OFFSET 7.38963 1.71661e-005 0
      CHANNELS 3 Zrotation Xrotation Yrotation
      JOINT Spine2
      {
        OFFSET 11.9445 1.14441e-005 0
        CHANNELS 3 Zrotation Xrotation Yrotation
        JOINT Spine3
        {
          OFFSET 14.7254 4.19617e-005 0
          CHANNELS 3 Zrotation Xrotation Yrotation
          JOINT Spine4
          {
            OFFSET 10.9679 0 0
            CHANNELS 3 Zrotation Xrotation Yrotation
            JOINT RightShoulder
            {
              OFFSET 2.46616 -1.6653 3.69651
              CHANNELS 3 Zrotation Xrotation Yrotation
              JOINT RightArm
              {
                OFFSET 13.0012 0 0
                CHANNELS 3 Zrotation Xrotation Yrotation
                JOINT RightForeArm
                {
                  OFFSET 28.7848 1.62311e-005 0
                  CHANNELS 3 Zrotation Xrotation Yrotation
                  JOINT RightHand
                  {
                    OFFSET 26.5688 1.62095e-005 0
                    CHANNELS 3 Zrotation Xrotation Yrotation
                    End Site
                    {
                      OFFSET 0 0 0
                    }
                  }
                }
              }
            }
            JOINT LeftShoulder
            {
              OFFSET 2.38034 -1.29275 -3.7523
              CHANNELS 3 Zrotation Xrotation Yrotation
              JOINT LeftArm
              {
                OFFSET 16.3182 6.07031e-005 0
                CHANNELS 3 Zrotation Xrotation Yrotation
                JOINT LeftForeArm
                {
                  OFFSET 27.0901 0 0
                  CHANNELS 3 Zrotation Xrotation Yrotation
                  JOINT LeftHand
                  {
                    OFFSET 24.5451 1.51738e-005 0
                    CHANNELS 3 Zrotation Xrotation Yrotation
                    End Site
                    {
                      OFFSET 0 0 0
                    }
                  }
                }
              }
            }
            JOINT Neck
            {
              OFFSET 5.0226 -0.0266342 0
              CHANNELS 3 Zrotation Xrotation Yrotation
              JOINT Head
              {
                OFFSET 6.69364 2.86102e-005 0
                CHANNELS 3 Zrotation Xrotation Yrotation
                End Site
                {
                  OFFSET 0 0 0
                }
              }
            }
          }
        }
      }
    }
  }
}
MOTION
Frames:	15
Frame Time:	0.0416667
85.0511 94.0323 7.18583 -106.507 -46.6972 -103.482 -178.641 10.2934 84.607 -32.8759 18.0727 0.0913571 61.721 2.41051 13.312 38.2095 3.81833 0.0474779 167.265 17.0851 88.9129 -75.2301 -10.3001 -0.663791 57.2072 7.70883 9.47468 24.1441 6.8031 -3.88266 -0.254409 8.41917 -89.5936 10.036 -0.321966 0.833846 -1.63521 -0.284957 0.847194 -24.1691 -0.557684 0.698539 -4.15644 -0.557681 0.698539 96.3269 -51.1151 -90.9392 32.9308 -12.5687 -10.3641 -0.731117 -17.3252 -15.4393 -9.72261 -0.559796 1.59645 -81.3962 -55.8155 92.0609 -31.8947 -27.826 -22.3827 4.66354 71.2904 0.0248516 -3.34342 0.0824994 -9.43273 1.55589 -4.25393 -3.65074 -17.2029 -4.24864 4.32063 
80.4192 95.1444 11.833 -105.201 -44.3723 -101.662 -177.475 4.31154 85.3754 -29.5144 15.3777 0.0993955 63.5359 3.895 12.3999 39.0051 4.20407 1.58965 166.794 21.467 90.7584 -61.8656 -7.78272 1.2775 61.9525 1.46686 10.2042 29.117 -0.267218 -5.3417 -0.605853 8.32877 -89.6444 10.2197 -1.04475 0.79535 -1.45112 -1.00875 0.84055 -23.9888 -1.23547 0.444561 -3.97619 -1.2355 0.444551 96.371 -51.1942 -90.8631 33.0762 -10.8124 -6.95175 -1.05636 -17.3527 -15.9852 -10.126 -0.537619 1.03111 -81.2636 -54.187 92.1522 -33.5732 -23.1108 -30.7488 2.1578 64.3317 0.866393 -0.719714 -0.0916845 -8.1672 0.68443 -6.45819 -2.04291 -16.5204 -6.10309 -0.276196 
75.7514 95.8907 15.8491 -102.436 -40.5865 -99.7673 -176.878 -1.03732 84.9656 -23.8686 11.109 -0.288847 63.0959 4.5793 11.8807 41.6474 5.46225 3.66143 165.635 20.0014 91.3882 -35.8438 5.71758 4.57213 62.8298 -0.962694 7.59164 35.5949 -9.76929 -5.47941 -0.76729 8.09436 -89.6371 10.6902 -1.3606 0.846099 -0.980368 -1.32206 0.905157 -23.5206 -1.552 0.397991 -3.50796 -1.552 0.397988 96.6029 -51.3332 -90.4936 32.5255 -8.23288 -5.76669 -0.463697 -16.509 -15.211 -10.0483 -0.562032 1.37866 -81.4605 -52.5445 91.7624 -30.9498 -18.4623 -34.303 5.1033 54.3431 -7.48868 -0.321815 -0.168237 -8.70707 -0.261603 -8.70443 -1.149 -14.7338 -8.13652 -3.4241 
70.7408 96.2539 19.2902 -99.3101 -34.2979 -98.6006 -176.495 -6.02481 83.6496 -18.3985 8.13086 -1.13264 58.6548 4.23409 12.6109 48.5402 8.77883 5.42112 166.154 18.0602 91.0423 -21.2284 25.9889 7.36948 63.4711 4.03619 5.08597 28.9118 0.161555 -8.36291 -0.626419 7.73021 -89.5938 11.4174 -1.05674 0.915835 -0.253474 -1.01543 0.96146 -22.7909 -1.28314 0.555882 -2.77828 -1.28312 0.555882 96.3313 -51.5989 -90.8784 31.8411 -6.24128 -5.14818 -0.310279 -16.8578 -14.2664 -8.77385 -0.481199 1.26835 -80.9097 -51.4914 92.5138 -28.3983 -15.6375 -34.8328 10.4895 47.6998 -18.5381 1.49005 -0.243964 -8.91869 -0.111742 -9.95227 0.0845283 -15.0393 -9.38949 -4.74683 
65.3475 95.1265 22.5335 -98.0241 -26.1305 -97.713 -174.799 -2.17854 82.2014 -31.7043 5.45382 -1.00412 56.2256 1.17779 6.4216 57.158 14.0283 10.5888 168.105 18.3671 93.3655 -25.6523 22.1538 5.16859 66.8089 0.0950229 -1.06316 27.7392 1.69595 -4.59098 -0.256878 7.58631 -89.7693 11.7047 -0.402619 0.501951 0.0337228 -0.380155 0.519186 -22.5018 -0.534863 0.357742 -2.48915 -0.534869 0.357741 96.4369 -50.9231 -90.7922 31.5999 -6.08514 -6.24944 -0.103024 -17.613 -13.4194 -8.09652 -0.460835 1.5169 -80.6106 -52.4605 93.0094 -25.4998 -14.0712 -31.9927 12.8781 44.9103 -25.5213 2.7668 -0.331451 -9.68767 0.963857 -9.59853 1.17769 -14.2726 -9.24734 -4.40747 
60.5618 94.0653 24.7942 -98.5489 -20.4817 -94.7185 -170.243 8.32297 86.6266 -56.3226 5.04394 0.207919 51.0123 -5.3266 2.07564 51.1637 11.2508 12.6874 168.069 17.7392 96.1811 -34.1598 18.3994 5.20769 70.6697 -0.251023 0.756749 27.9825 1.20589 -2.28322 -0.14879 7.66684 -90.2899 11.5395 -0.431682 -0.535225 -0.131483 -0.454815 -0.51571 -22.666 -0.250864 -0.640213 -2.65338 -0.250881 -0.640222 96.5436 -50.9767 -90.623 29.4963 -7.26227 -8.34292 -0.839873 -16.734 -15.6281 -9.51053 -0.51654 1.2239 -81.2779 -52.3147 92.0174 -27.1182 -12.7297 -27.0794 15.3315 47.5906 -28.6346 2.89063 -0.372573 -10.374 -0.140035 -10.3036 -0.435054 -12.9768 -9.72423 -4.81336 
55.8464 94.0787 26.5141 -99.8553 -10.4001 -95.6647 -173.253 15.4383 86.695 -63.0651 3.17546 2.18018 52.3054 -2.19325 7.48567 42.422 6.44078 11.4001 169.606 13.6803 96.7244 -36.1709 11.2965 3.78439 72.6424 -3.14123 0.367422 26.402 3.33772 -1.6811 -0.0294842 7.88295 -90.3481 11.107 -0.220008 -0.670183 -0.564159 -0.249241 -0.659863 -23.0979 -0.00842295 -0.705318 -3.08523 -0.00842168 -0.705319 96.5391 -51.6869 -90.5529 27.637 -9.38441 -11.9574 -2.45407 -15.5331 -19.9693 -11.1373 -0.530908 0.373387 -80.9928 -52.7686 92.4638 -27.8859 -12.475 -20.9404 16.4053 54.154 -28.748 -0.314104 -0.216489 -11.7465 -1.75432 -12.5009 -1.58848 -12.6394 -11.5058 -8.38088 
51.4571 94.5617 27.827 -97.9483 2.26729 -92.5768 179.738 18.5516 86.4939 -53.4861 3.8486 3.53204 53.4737 -0.241866 8.81472 48.6081 10.1525 14.2914 171.882 11.0037 97.2366 -34.8518 4.62774 1.88622 73.766 -6.20037 1.57589 27.5024 1.76239 -0.825967 0.149589 7.77056 -90.3749 11.3326 0.122941 -0.758765 -0.338586 0.0893941 -0.763439 -22.8723 0.345311 -0.686741 -2.85961 0.345298 -0.68674 96.619 -50.8161 -90.5246 27.9612 -13.3299 -14.2461 -4.93072 -13.4836 -25.9871 -11.0603 -0.475894 -0.185408 -80.4491 -55.3831 93.3845 -29.1484 -17.547 -12.5057 20.7682 62.5134 -28.6274 -5.3463 0.108082 -12.009 -2.15908 -14.8285 0.483652 -13.6346 -13.6439 -12.1484 
47.2754 95.5016 28.5526 -95.0673 17.2778 -91.1859 172.807 16.7735 88.4755 -33.0241 8.96523 5.16891 55.1924 3.13661 8.0414 50.882 11.5858 15.1535 174.472 9.35781 96.8195 -32.5076 -3.43563 -0.328982 74.5269 -8.06962 5.59615 27.9905 1.15305 -1.67435 0.305288 7.5577 -90.3731 11.7595 0.431918 -0.788946 0.088407 0.396757 -0.807206 -22.446 0.649033 -0.622677 -2.43339 0.649046 -0.622679 96.5706 -50.3014 -90.6551 27.6497 -19.7105 -16.0961 -7.25048 -12.6319 -29.7898 -11.9183 -0.4632 -0.697834 -79.7139 -57.6777 94.5102 -30.9551 -24.9704 -5.75039 13.1311 68.3709 -14.4516 -8.74334 0.370485 -12.6081 -0.0737997 -15.582 2.28909 -14.127 -14.4369 -13.4157 
43.3417 96.0241 28.3696 -91.8887 29.9234 -91.1895 170.566 12.9561 91.3762 -14.307 23.8443 6.71938 56.6862 4.16666 4.5658 51.6653 11.9019 14.5375 176.456 8.01678 96.6209 -29.8498 -9.69288 -1.68649 74.7884 -9.61808 9.62809 28.0429 1.03067 -0.791202 0.354822 7.48574 -90.4004 11.9038 0.517142 -0.854096 0.232677 0.479075 -0.87604 -22.3018 0.749915 -0.659199 -2.2892 0.749922 -0.659203 96.6975 -50.8487 -90.4002 26.7049 -21.6584 -17.6574 -7.49767 -11.8699 -30.926 -12.3262 -0.529338 -0.182312 -80.0038 -57.6712 94.1064 -34.5516 -31.4619 -7.01402 3.05079 81.1175 2.94226 -10.3386 0.548211 -12.3628 3.23143 -15.0781 0.732817 -14.8357 -13.8238 -11.3566 
38.7723 95.7161 27.5169 -91.6351 39.499 -89.9801 173.132 12.3752 91.4176 -15.0772 29.1263 7.19688 58.9541 3.5806 3.37999 51.3499 11.5533 13.5923 178.855 5.11909 96.9096 -29.4962 -13.689 -3.88545 74.6965 -12.0819 10.1537 28.8488 -0.156886 1.68457 0.265472 7.6708 -90.3574 11.5329 0.360985 -0.749321 -0.138192 0.327643 -0.764491 -22.6725 0.56949 -0.606196 -2.65986 0.569499 -0.606202 96.5471 -50.7117 -90.6462 27.4476 -18.9667 -17.0756 -5.20347 -10.9694 -28.4854 -12.7506 -0.622766 0.508068 -80.4624 -57.3019 93.4523 -35.8489 -34.0067 -10.2658 8.90133 87.7037 0.346404 -4.77957 0.219763 -10.3541 2.85133 -13.8135 -1.14503 -13.5574 -12.5979 -9.21586 
33.9193 94.4934 26.2891 -92.7041 45.1084 -88.4953 172.123 13.7514 90.1934 -26.0106 27.7735 7.92825 59.0338 2.88927 6.53179 49.511 9.82784 9.21704 -178.306 3.18096 97.2125 -32.8983 -14.9615 -6.05117 74.1402 -15.1042 7.93002 33.4571 -6.14443 1.00295 0.0484246 7.82972 -90.2509 11.2141 -0.0201919 -0.4974 -0.456916 -0.0420609 -0.496035 -22.9913 0.13022 -0.48048 -2.9787 0.130215 -0.48048 96.7415 -51.543 -90.2601 27.5267 -13.8784 -13.6009 -2.72369 -9.91411 -26.0676 -15.4152 -0.860171 1.31648 -80.9765 -55.5326 92.6409 -33.2717 -31.1339 -10.9257 5.77486 79.745 0.0515416 0.113652 -0.0807402 -8.89214 1.58927 -12.4734 -2.24239 -12.8522 -11.3365 -7.53792 
29.8503 94.0462 24.4144 -92.9603 51.0089 -89.6264 174.744 12.2355 88.1222 -28.2212 24.8447 6.07386 60.644 4.58198 8.82051 47.7498 8.55672 6.49606 -177.841 7.4228 94.1505 -44.8266 -17.036 -6.39366 71.4204 -9.71417 10.0896 35.0491 -8.51339 -1.56815 -0.10197 7.87977 -89.8928 11.1135 -0.15319 0.227764 -0.557474 -0.143009 0.234276 -23.0925 -0.214579 0.171187 -3.07986 -0.214563 0.171196 96.807 -51.5648 -90.1583 28.6359 -9.87807 -10.736 -0.0823437 -9.46291 -21.1619 -17.2761 -1.14979 2.57281 -81.0852 -54.1429 92.4081 -29.8847 -28.7653 -14.6879 3.0901 67.2845 0.00736127 1.0374 -0.173715 -8.6785 1.28634 -10.7544 -2.27789 -12.2168 -9.81176 -5.92471 
26.5595 94.0286 22.1347 -96.803 56.0821 -84.5253 178.632 8.14872 88.9708 -30.3333 23.3507 5.47848 63.797 6.51487 9.90842 48.5861 8.95559 6.47963 -178.687 14.2894 92.8647 -58.2709 -17.7439 -4.46562 63.8428 2.17004 15.0618 33.1426 -6.43228 -8.67192 -0.311092 8.04666 -89.9758 10.781 -0.608283 0.103931 -0.88977 -0.603118 0.130592 -23.426 -0.611402 -0.0837076 -3.41334 -0.611402 -0.0837035 96.8103 -51.4859 -90.1613 29.873 -7.78844 -9.36368 1.71986 -11.967 -14.4999 -16.4075 -1.16235 3.10663 -81.2631 -52.6287 92.0581 -30.0184 -28.6361 -22.078 4.16977 65.1754 -0.00363113 4.01557 -0.203187 -7.74353 1.76293 -8.58562 -2.96818 -11.8992 -7.86007 -2.30516 
23.8715 94.1361 19.2636 -99.3907 60.5748 -80.9038 -178.498 3.60573 90.021 -28.9204 22.1495 4.40088 65.1377 7.5763 11.0806 49.6454 9.39106 6.06099 175.423 21.7011 92.0867 -64.6474 -14.4875 -1.72497 62.9042 2.5526 13.5557 34.1123 -8.13415 -10.2694 -0.514745 8.07415 -90.0459 10.7253 -1.04614 0.00469198 -0.945257 -1.04493 0.0507311 -23.4835 -0.999187 -0.30997 -3.47088 -0.999178 -0.309966 96.3536 -51.8855 -90.8124 31.372 -4.69256 -6.24631 2.24827 -14.2037 -11.4902 -14.817 -1.02627 2.8942 -81.4353 -53.013 91.8299 -29.2337 -27.3932 -28.8431 3.92845 63.9512 0.0755427 3.64188 -0.190764 -7.70904 4.53486 -6.74484 -3.15133 -12.9016 -6.0797 -0.289644 
